<svg xmlns="http://www.w3.org/2000/svg" viewBox="0 0 53.719 48.585"><defs><style>.cls-1{fill:#231f20;}</style></defs><g id="Layer_2" data-name="Layer 2"><g id="icon_labels" data-name="icon labels"><path class="cls-1" d="M52.449,30.157H44.187v3.177h4.449a2.543,2.543,0,0,1,2.542,2.542V46.044a2.542,2.542,0,0,1-2.542,2.541H35.926a2.541,2.541,0,0,1-2.541-2.541V35.876a2.542,2.542,0,0,1,2.541-2.542h4.449V30.157H16.227v3.177h4.448a2.543,2.543,0,0,1,2.542,2.542V46.044a2.542,2.542,0,0,1-2.542,2.541H7.966a2.542,2.542,0,0,1-2.542-2.541V35.876a2.543,2.543,0,0,1,2.542-2.542h4.448V30.157H4.153a1.27,1.27,0,0,1-1.271-1.271V27.615a1.271,1.271,0,0,1,1.271-1.271H26.394V23.167H20.675a2.543,2.543,0,0,1-2.542-2.542V10.457a2.542,2.542,0,0,1,2.542-2.541H35.926a2.542,2.542,0,0,1,2.542,2.541V20.625a2.543,2.543,0,0,1-2.542,2.542H30.207v3.177H52.449a1.269,1.269,0,0,1,1.27,1.271v1.271A1.269,1.269,0,0,1,52.449,30.157ZM18.133,38.418H10.508V43.5h7.625ZM33.385,18.083V13H23.217v5.084ZM46.094,38.418H38.468V43.5h7.626Z"/><path class="cls-1" d="M7.859,0V17.008H4.75V3.185L1.389,5.459,0,3.387,5.054,0Z"/></g></g></svg>