<svg xmlns="http://www.w3.org/2000/svg" viewBox="0 0 73.827 49.169"><defs><style>.cls-1{fill:#231f20;}</style></defs><g id="Layer_2" data-name="Layer 2"><g id="icon_labels" data-name="icon labels"><path class="cls-1" d="M72.556,30.741H64.3v3.177h4.448a2.543,2.543,0,0,1,2.542,2.542V46.627a2.543,2.543,0,0,1-2.542,2.542H56.034a2.542,2.542,0,0,1-2.542-2.542V36.46a2.542,2.542,0,0,1,2.542-2.542h4.448V30.741H36.334v3.177h4.448a2.542,2.542,0,0,1,2.542,2.542V46.627a2.542,2.542,0,0,1-2.542,2.542H28.073a2.543,2.543,0,0,1-2.542-2.542V36.46a2.543,2.543,0,0,1,2.542-2.542h4.448V30.741H24.26a1.272,1.272,0,0,1-1.271-1.271V28.2a1.271,1.271,0,0,1,1.271-1.271H46.5V23.75h-5.72a2.541,2.541,0,0,1-2.541-2.541V11.041A2.542,2.542,0,0,1,40.782,8.5H56.034a2.542,2.542,0,0,1,2.541,2.542V21.209a2.541,2.541,0,0,1-2.541,2.541h-5.72v3.178H72.556A1.27,1.27,0,0,1,73.827,28.2V29.47A1.27,1.27,0,0,1,72.556,30.741ZM38.241,39H30.615v5.083h7.626ZM53.492,18.667V13.583H43.324v5.084ZM66.2,39H58.575v5.083H66.2Z"/><path class="cls-1" d="M7.5.6A4.166,4.166,0,0,1,9.184,2.211a4.563,4.563,0,0,1,.583,2.308A6.828,6.828,0,0,1,9.233,7.18a12.657,12.657,0,0,1-1.786,2.854q-1.251,1.581-3.681,4.2h6.317l-.316,2.405H.437V14.408q2.7-3.061,3.949-4.653A13.648,13.648,0,0,0,6.135,7.046a5.668,5.668,0,0,0,.5-2.333A2.442,2.442,0,0,0,6.086,3a1.927,1.927,0,0,0-1.494-.6,2.617,2.617,0,0,0-1.421.389A6.06,6.06,0,0,0,1.822,4.057L0,2.648A5.709,5.709,0,0,1,4.859,0,5.5,5.5,0,0,1,7.5.6Z"/><path class="cls-1" d="M14.978,13.728a1.948,1.948,0,0,1,0,2.709,1.819,1.819,0,0,1-1.372.571,1.757,1.757,0,0,1-1.337-.571,1.985,1.985,0,0,1,0-2.709,1.772,1.772,0,0,1,1.337-.559A1.835,1.835,0,0,1,14.978,13.728Z"/><path class="cls-1" d="M26.362,2.551H20.871V6.682a4.78,4.78,0,0,1,2.259-.608,3.8,3.8,0,0,1,3.062,1.4,5.835,5.835,0,0,1,1.166,3.851,6.166,6.166,0,0,1-.692,2.964,4.962,4.962,0,0,1-1.956,2.005,5.866,5.866,0,0,1-2.94.717,5.7,5.7,0,0,1-2.673-.6,7.115,7.115,0,0,1-2.089-1.688l1.725-1.58a4.952,4.952,0,0,0,1.348,1.13,3.214,3.214,0,0,0,1.567.377,2.318,2.318,0,0,0,1.92-.85,3.9,3.9,0,0,0,.68-2.479q0-3.084-2.235-3.085a3.186,3.186,0,0,0-.924.133,4.619,4.619,0,0,0-.971.45H18V.291h8.723Z"/></g></g></svg>