<svg xmlns="http://www.w3.org/2000/svg" viewBox="0 0 119.924 28.346"><defs><style>.cls-1{fill:#231f20;}</style></defs><g id="Layer_2" data-name="Layer 2"><g id="icon_labels" data-name="icon labels"><path class="cls-1" d="M46.075,14.712l-6.445,3.87a.635.635,0,0,1-.325.1.678.678,0,0,1-.326-.079.652.652,0,0,1-.325-.565V15.464H21.388c1.83,2.865,2.93,7.733,5.035,7.733h1.931V21.258A.635.635,0,0,1,29,20.615h6.445a.635.635,0,0,1,.644.643V27.7a.635.635,0,0,1-.644.643H29a.635.635,0,0,1-.643-.643V25.771H26.423c-5.454,0-5.867-10.307-9.02-10.307H10.148a5.161,5.161,0,1,1,0-2.582c2.828,0,3.175.687,5.4-4.369,2.9-6.445,4.2-5.938,7.877-5.938a3.87,3.87,0,1,1,0,2.589H21.265c-2.105,0-3.2,4.875-5.034,7.732h22.43V10.322a.65.65,0,0,1,.326-.565.606.606,0,0,1,.643.022l6.445,3.87a.551.551,0,0,1,.326.52A.607.607,0,0,1,46.075,14.712Z"/><path class="cls-1" d="M65.82,6.706a3.921,3.921,0,0,1,1.6,1.464,3.857,3.857,0,0,1,.554,2.027,3.61,3.61,0,0,1-.778,2.4,4.318,4.318,0,0,1-2.241,1.333,4.123,4.123,0,0,1,2.535,1.155,3.688,3.688,0,0,1,.956,2.712,4.837,4.837,0,0,1-.637,2.454,4.644,4.644,0,0,1-1.828,1.77,5.739,5.739,0,0,1-2.819.66,5.92,5.92,0,0,1-2.654-.577A6.523,6.523,0,0,1,58.4,20.389L60.076,18.9A5.94,5.94,0,0,0,61.5,20.036a3.181,3.181,0,0,0,1.5.353,2.286,2.286,0,0,0,1.769-.719,2.841,2.841,0,0,0,.66-1.994,2.591,2.591,0,0,0-.66-1.993,2.852,2.852,0,0,0-1.981-.6H61.7l.33-2.1h.731a2.372,2.372,0,0,0,1.734-.637,2.429,2.429,0,0,0,.649-1.815,2.1,2.1,0,0,0-.567-1.57A2.131,2.131,0,0,0,63.024,8.4a3.813,3.813,0,0,0-2.783,1.322l-1.51-1.534a6.265,6.265,0,0,1,4.624-2.029A5.31,5.31,0,0,1,65.82,6.706Z"/><path class="cls-1" d="M74.453,19.492a1.892,1.892,0,0,1,0,2.631,1.764,1.764,0,0,1-1.332.554,1.7,1.7,0,0,1-1.3-.554,1.927,1.927,0,0,1,0-2.631,1.724,1.724,0,0,1,1.3-.542A1.787,1.787,0,0,1,74.453,19.492Z"/><path class="cls-1" d="M84.432,6.741a4.06,4.06,0,0,1,1.64,1.57,4.427,4.427,0,0,1,.566,2.241,6.641,6.641,0,0,1-.518,2.583,12.374,12.374,0,0,1-1.734,2.772q-1.216,1.534-3.574,4.081h6.133l-.307,2.336H77.58V20.152q2.618-2.972,3.833-4.517A13.258,13.258,0,0,0,83.112,13a5.511,5.511,0,0,0,.483-2.263,2.376,2.376,0,0,0-.531-1.664A1.872,1.872,0,0,0,81.613,8.5a2.539,2.539,0,0,0-1.38.378A5.926,5.926,0,0,0,78.924,10.1L77.155,8.735a5.543,5.543,0,0,1,4.718-2.571A5.337,5.337,0,0,1,84.432,6.741Z"/><path class="cls-1" d="M105.663,6.152a7.377,7.377,0,0,1,2.159,1.428l-1.581,1.628a5.942,5.942,0,0,0-1.5-.945,4.19,4.19,0,0,0-1.592-.284,3.184,3.184,0,0,0-2.724,1.453A8.371,8.371,0,0,0,99.4,14.161a14.711,14.711,0,0,0,.365,3.669,3.58,3.58,0,0,0,1.1,1.934,2.916,2.916,0,0,0,1.864.579,4.247,4.247,0,0,0,2.24-.615v-4.34h-2.123l-.306-2.265h5.378v7.951a9.828,9.828,0,0,1-2.453,1.179,8.741,8.741,0,0,1-2.69.424q-6.558,0-6.558-8.516a10.819,10.819,0,0,1,.909-4.671,6.549,6.549,0,0,1,2.453-2.865,6.464,6.464,0,0,1,3.48-.956A6.628,6.628,0,0,1,105.663,6.152Z"/><path class="cls-1" d="M117.411,6.741a4.06,4.06,0,0,1,1.64,1.57,4.427,4.427,0,0,1,.566,2.241,6.641,6.641,0,0,1-.518,2.583,12.374,12.374,0,0,1-1.734,2.772q-1.216,1.534-3.574,4.081h6.133l-.307,2.336h-9.058V20.152q2.618-2.972,3.833-4.517a13.258,13.258,0,0,0,1.7-2.631,5.511,5.511,0,0,0,.483-2.263,2.376,2.376,0,0,0-.531-1.664,1.872,1.872,0,0,0-1.451-.579,2.539,2.539,0,0,0-1.38.378A5.926,5.926,0,0,0,111.9,10.1l-1.769-1.368a5.543,5.543,0,0,1,4.718-2.571A5.337,5.337,0,0,1,117.411,6.741Z"/></g></g></svg>