<?xml version="1.0" encoding="utf-8"?>
<!-- Generator: Adobe Illustrator 19.1.0, SVG Export Plug-In . SVG Version: 6.00 Build 0)  -->
<!DOCTYPE svg PUBLIC "-//W3C//DTD SVG 1.1//EN" "http://www.w3.org/Graphics/SVG/1.1/DTD/svg11.dtd">
<svg version="1.1" id="Layer_1" xmlns="http://www.w3.org/2000/svg" xmlns:xlink="http://www.w3.org/1999/xlink" x="0px" y="0px"
	 viewBox="1138 -121.2 3067.8 855.2" style="enable-background:new 1138 -121.2 3067.8 855.2;" xml:space="preserve">
<g id="swatches">
</g>
<g id="final_1">
	<g>
		<path d="M1381.7,363.2c-23.9-13-54.8-18.3-79.6-22.7l-10.5-1.8c-26.1-4.3-50.8-8.4-69.1-16.8c-20.1-9.2-29.4-22.2-29.4-41.1
			c0-48.3,51.7-58.4,95.1-58.4c29.4,0,58.5,6.4,84,18.4c1,0.5,1.6,1.5,1.6,2.7v37.3c0,8.2,6.7,14.9,15,14.9
			c8.1,0,14.6-6.3,14.9-14.4l1.5-48.4c0.2-5.6-2.9-11-7.8-13.6c-33.2-17.8-69.8-27.1-105.9-27.1h-3.2c-80.9,0-127.2,32.3-127.2,88.7
			c0,69,76,80.8,126.4,88.6c33.4,4.9,57.6,9.8,75.5,18.6c20,9.9,29.3,24,29.3,44.3c0,60.4-85,63.5-102,63.5
			c-31.2,0-69-9.9-98.7-25.8c-0.9-0.5-1.4-1.5-1.4-2.6v-38.9c0-8.9-7.6-15.7-17-14.8c-7.6,0.7-13.3,7.4-13.3,15.1v50.5
			c0,5.5,3,10.6,7.9,13.2c40.6,21.7,72,33.5,121.2,33.5c16.7,0,49-1.8,78-14c36.9-15.5,55.8-42.1,56.2-79.1
			C1423.5,401.4,1410,378.6,1381.7,363.2z"/>
		<path d="M1809.7,198.4h-103.9c-8.6,0-15.5,7.3-15,16.1c0.4,7.8,7.7,14.1,15.5,14.1h31.5c0.7,0,1.4,0.2,1.9,0.7
			c1,0.9,1.3,2.2,0.8,3.3l-67,164.7L1645,471c-0.7,1.7-2.3,1.9-2.7,1.9c-1.3,0-2.2-0.7-2.7-1.8l-28.9-72l-71.1-166.3
			c-0.4-0.9-0.3-1.9,0.3-2.8c0.6-0.8,1.4-1.3,2.4-1.3h32.4c8.6,0,15.5-7.3,15-16.1c-0.4-7.8-7.7-14.1-15.5-14.1h-107
			c-8.6,0-15.5,7.3-15,16.1c0.4,7.8,7.7,14.1,15.5,14.1h35.1c1.2,0,2.2,0.7,2.7,1.8l120.6,280.9c0.3,0.7,0.3,1.6,0,2.3l-42,97.5
			c-10.4,23.3-25.4,35.6-43.4,35.6c-10.9,0-22.8-4.3-35.3-12.7c-2.3-1.6-5.1-2.4-8.1-2.4c-5.1,0-9.9,2.5-12.6,6.6l-0.9,1.4
			c-2.2,3.4-2.9,7.4-2.1,11.3c0.9,3.9,3.2,7.2,6.5,9.4c17.6,11.5,35.2,17.3,52.1,17.3c32.2,0,58.8-20.7,73-56.8l163.2-390.5
			c0.5-1.1,1.5-1.8,2.7-1.8h31.1c8.6,0,15.5-7.3,15-16.1C1824.7,204.8,1817.5,198.4,1809.7,198.4z"/>
		<path d="M2070.6,363.2c-23.9-13-54.8-18.3-79.6-22.7l-10.5-1.8c-26.1-4.3-50.8-8.4-69.1-16.8c-20.1-9.2-29.4-22.2-29.4-41.1
			c0-48.3,51.7-58.4,95.1-58.4c29.5,0,58.5,6.4,84,18.4c1,0.5,1.6,1.5,1.6,2.7v37.3c0,8.8,7.8,15.9,17,14.7
			c6.9-0.9,12.7-7.8,12.9-14.8l1.4-47.9c0.2-5.6-2.9-11-7.8-13.6c-33.2-17.8-69.8-27.1-105.9-27.1h-3.2
			c-80.9,0-127.2,32.3-127.2,88.7c0,69,76,80.8,126.4,88.6c33.4,4.9,57.6,9.8,75.5,18.6c20,9.9,29.3,24,29.3,44.3
			c0,60.4-85,63.5-102,63.5c-31.2,0-69-9.9-98.7-25.8c-0.9-0.5-1.4-1.5-1.4-2.6v-38.9c0-8.9-7.6-15.7-17-14.8
			c-7.6,0.7-13.3,7.4-13.3,15.1v50.5c0,5.5,3,10.6,7.9,13.2c40.6,21.7,72,33.5,121.2,33.5c16.7,0,49-1.8,78-14
			c36.9-15.5,55.8-42.1,56.2-79.1C2112.4,401.4,2098.9,378.6,2070.6,363.2z"/>
		<path d="M2350.9,483.5c-2,0-3.9,0.4-5.7,1.2c-16.6,7.2-34.8,11.8-46.4,11.8c-47.3,0-55.9-24.8-55.9-73.6V226.3
			c0.1-0.1,0.1-0.1,0.1-0.1h96.9c8.4,0,15.2-7.5,14-16.3c-0.9-6.7-7.7-12.1-14.4-12.1H2243c-0.1-0.1-0.1-0.1-0.1-0.1v-83.1
			c0-6.7-5.4-12.1-12-12.1c-0.4,0-0.9,0-1.3,0.1l-6.7,0.7c-6.2,0.6-10.9,5.8-10.9,12v82.4c-0.1,0.1-0.1,0.1-0.1,0.1h-54
			c-8.4,0-15.2,7.5-14,16.3c0.9,6.7,7.7,12.1,14.4,12.1h53.5c0.1,0.1,0.1,0.1,0.1,0.1v196.6c0,22.2,1.7,50.3,15,70.9
			c13.8,21.4,37.7,32,73.1,32.3l0,0c16.3,0,37.6-5.2,56.9-14c2.9-1.3,5.4-3.4,6.9-6.1c2.7-4.6,2.7-10,0.3-14.6
			C2361.7,486.6,2356.5,483.5,2350.9,483.5z M2300.1,523.5L2300.1,523.5L2300.1,523.5L2300.1,523.5z"/>
		<path d="M2545.5,194c-93.1,0-160.7,70-160.7,166.4c0,112.6,83.6,163.9,161.3,163.9c53.1,0,104.3-21.4,133.7-55.8
			c2.7-3.2,4-7.3,3.5-11.5s-2.7-7.9-6.3-10.5c-2.5-1.8-5.4-2.8-8.6-2.8c-4.4,0-8.5,1.8-11.2,5c-23.5,27.1-68.1,45.3-111.1,45.3
			c-89,0-125.9-67.5-130.4-125.2c-0.1-1.9-0.3-7.6-0.3-9.6c0-1.7,0.3-7.1,0.3-7.2c5.2-77.5,56.1-127.7,129.8-127.7
			c41.3,0,73.9,10.4,96.8,30.9c22.9,20.5,34.8,49.8,35.5,87.2c0,0.9-0.3,1.7-0.9,2.3c-0.6,0.6-1.3,0.9-2.1,0.9h-205.7
			c-8.4,0-15.2,7.2-14.7,15.8c0.4,7.6,7.6,13.9,15.2,13.9h222.9c7.8,0,14.4-6.1,14.8-13.8c3.2-49.5-9.2-89.6-37-119.2
			C2641.4,211.1,2597,194,2545.5,194z"/>
		<path d="M3194.7,196.7c-12.5-3.1-25.3-4.6-38-4.6c-53.7,0-98.4,27.2-119.6,72.9c-19.2-45.3-64.8-72.3-122.3-72.3
			c-43.9,0-79.8,17.2-101.2,48.5v-31c0-6.5-5.3-11.8-11.8-11.8h-64.9c-9.1,0-16.3,8.1-15.1,17.5c1,7.2,8.3,13.1,15.5,13.1h44.3
			v284.4c0,6.5,5.3,11.8,11.8,11.8h8.4c6.5,0,11.8-5.3,11.8-11.8V329c0-60.7,40.7-103.2,101.2-105.7c62.9,0,106.9,43.5,106.9,105.7
			v181.1c0,9.1,8.1,16.3,17.5,15.1c7.2-1,13.1-8.3,13.1-15.5V329c0-62.6,42.9-106.3,104.4-106.3c62.8,0,105,41.7,105,103.7v187.1
			c0,6.5,5.3,11.8,11.8,11.8h8.4c6.5,0,11.8-5.3,11.8-11.8V324.9C3293.6,259.8,3256.6,211.8,3194.7,196.7z"/>
	</g>
	<g>
		<path d="M3780,275.5c-25.6,67.6-24.3,132.7,4,188.5c4.9,9.6,10.5,19,16.8,27.8c32.5,45.9,81.1,76.3,136.8,85.7
			c5.7,1,11.5,1.7,17.1,2.2c6.2,0.6,12.6,0.8,18.9,0.8l0,0c43.8,0,85.9-13.1,121.7-37.9c46.2-32,76.7-79.9,85.9-134.7
			c9.2-54.8-4-110-37.1-155.4c-33-45.2-81.9-75.2-137.7-84.6c-3.2-0.5-6.4-1-9.5-1.4c-7.8-0.9-15.8,1.6-21.6,6.8
			c-5.7,5.1-9,12.2-9.2,19.8c-0.4,14.5,10.1,26.5,24.2,28.3c2.3,0.3,4.7,0.6,7,1c41.2,6.9,77.3,29.1,101.8,62.3
			c24.6,33.4,34.4,73.8,27.6,114c-6.4,37.9-27.1,71.6-58.4,95c-27.5,20.6-60.2,31.4-94.7,31.4c-4.7,0-9.5-0.2-14.2-0.6
			c-4.2-0.4-8.5-0.9-12.7-1.6c-40.7-6.9-76.4-29.2-100.5-62.8c-13.4-18.8-22.4-40.9-25.9-64c-6.9-45.4,6.8-103.1,36.5-154.4
			c0.2-0.4,5.1-9.2,13-23.4c35.3-63.9,142-256.8,151.2-273.9l2.7-8.2c4.2-12.6-1.2-26.4-12.9-32.8l-0.6-0.3
			c-4.1-2.3-8.7-3.4-13.3-3.4c-8.3,0-16,3.6-21.3,10l-5.1,6.2l-160.7,293.6C3799.6,230,3788.8,252.4,3780,275.5z"/>
		<path d="M3432.8,709.3l0.7,0.4c4.2,2.3,8.9,3.4,13.6,3.4l0,0c10.7,0,20.4-5.8,25.5-15.2L3751,181.5c6.9-12.8,3.1-28.7-8.6-37.1
			l-0.4-0.3c-4-3.2-11.9-5.5-18.5-5.5h-364.7c-13.6,0-24.9,11.1-25.3,24.7v1c-0.1,4.7,1.2,9.4,3.8,13.5l71.8,120.9
			c4.5,7.3,12.6,11.7,21.4,11.7c4.8,0,9.6-1.4,13.8-4c6-3.8,10.2-9.4,11.8-16c1.7-6.7,0.6-13.5-3-19.3l-48.3-81.4h275.3L3421,670.2
			c-3.6,6.8-4.4,14.6-2.2,22C3421,699.6,3426,705.7,3432.8,709.3z"/>
	</g>
	<g>
		<path d="M4140.8,712.4h-335.1c-16.2,0-29.3-13.1-29.3-29.3v-0.6c0-16.2,13.1-29.3,29.3-29.3h335.1c16.2,0,29.3,13.1,29.3,29.3v0.6
			C4170.1,699.3,4157,712.4,4140.8,712.4z"/>
	</g>
</g>
<g id="new_dir_3">
</g>
<g id="new_dir_4">
</g>
</svg>
