<?xml version="1.0" encoding="utf-8"?>
<!-- Generator: Adobe Illustrator 22.1.0, SVG Export Plug-In . SVG Version: 6.00 Build 0)  -->
<svg version="1.1" id="line_art" xmlns="http://www.w3.org/2000/svg" xmlns:xlink="http://www.w3.org/1999/xlink" x="0px" y="0px"
	 viewBox="0 0 650 373.4" style="enable-background:new 0 0 650 373.4;" xml:space="preserve">
<style type="text/css">
	.st0{display:none;}
	.st1{display:inline;fill:none;}
	.st2{display:inline;opacity:0.98;enable-background:new    ;}
	.st3{font-family:'FiraSansCondensed-Light';}
	.st4{font-size:31px;}
	.st5{letter-spacing:1;}
	.st6{display:inline;}
	.st7{fill:none;stroke:#000000;stroke-width:1.4173;stroke-linecap:round;stroke-linejoin:round;stroke-miterlimit:10;}
	.st8{fill:none;stroke:#000000;stroke-width:4.252;stroke-linecap:round;stroke-linejoin:round;stroke-miterlimit:10;}
	.st9{fill:none;stroke:#000000;stroke-width:2.8346;stroke-linecap:round;stroke-linejoin:round;stroke-miterlimit:10;}
	.st10{fill:none;stroke:#000000;stroke-width:1.4173;stroke-linecap:round;stroke-miterlimit:10;}
	.st11{opacity:0.98;}
</style>
<g class="st0">
	<rect x="521" y="261.4" class="st1" width="100.3" height="25.8"/>
	<text transform="matrix(1 0 0 1 521.6418 284.4763)" class="st2 st3 st4 st5">THELIO</text>
	<g class="st6">
		<path class="st7" d="M47,292.1l52.7-53.3l52.1-53.3l53.3,53.3l52.7,53.3l34.4-34.9l33.3,34.9l33.3-33.7l33.3-33.7l33.3,33.7
			l33.3,33.7c0.1,0.1,0.2,0.1,0.3,0l11.8-12l11.9-12l11.9,12l11.9,12h1.6h7.1"/>
		<polyline class="st8" points="435.4,288.2 364.2,216.1 292.3,144 221.7,216.1 151.8,288.2 82.9,220 15.5,288.3 		"/>
		<polyline class="st9" points="100.5,291.1 126.4,264.8 151.8,238.5 177.9,264.8 204,291.2 248,246.7 256.2,238.4 292.3,202.2 
			335.9,246.7 379.8,291.1 405.8,264.8 431.8,238.5 457.8,264.8 483.8,291.1 		"/>
		<g>
			<g>
				<line class="st10" x1="586.2" y1="292.1" x2="592.4" y2="292.1"/>
				<line class="st10" x1="592.4" y1="292.1" x2="592.4" y2="292.1"/>
				<line class="st10" x1="596.6" y1="292.1" x2="596.6" y2="292.1"/>
				<line class="st10" x1="600.8" y1="292.1" x2="600.8" y2="292.1"/>
				<line class="st10" x1="605" y1="292.1" x2="605" y2="292.1"/>
			</g>
			<g>
				<line class="st10" x1="524.1" y1="292.1" x2="524.1" y2="292.1"/>
				<line class="st10" x1="528.3" y1="292.1" x2="528.3" y2="292.1"/>
				<line class="st10" x1="532.5" y1="292.1" x2="532.5" y2="292.1"/>
			</g>
			<g>
				<line class="st10" x1="568.9" y1="292.1" x2="568.9" y2="292.1"/>
				<line class="st10" x1="573.1" y1="292.1" x2="573.1" y2="292.1"/>
				<line class="st10" x1="577.3" y1="292.1" x2="577.3" y2="292.1"/>
			</g>
			<g>
				<line class="st10" x1="613.9" y1="292.1" x2="620.1" y2="292.1"/>
				<line class="st10" x1="620.1" y1="292.1" x2="620.1" y2="292.1"/>
				<line class="st10" x1="624.3" y1="292.1" x2="624.3" y2="292.1"/>
				<line class="st10" x1="628.5" y1="292.1" x2="628.5" y2="292.1"/>
				<line class="st10" x1="632.7" y1="292.1" x2="632.7" y2="292.1"/>
				<line class="st10" x1="636.9" y1="292.1" x2="636.9" y2="292.1"/>
			</g>
			<g>
				<line class="st10" x1="541.4" y1="292.1" x2="547.6" y2="292.1"/>
				<line class="st10" x1="550.7" y1="292.1" x2="550.7" y2="292.1"/>
				<line class="st10" x1="553.8" y1="292.1" x2="560" y2="292.1"/>
			</g>
			<line class="st10" x1="506.9" y1="292.1" x2="515.2" y2="292.1"/>
		</g>
	</g>
</g>
<g class="st11">
	<path d="M532.9,265.8h-5.7v20.1h-1.8v-20.1h-5.8v-1.6H533L532.9,265.8z"/>
	<path d="M549.9,275.2h-9.2v10.6h-1.8v-21.7h1.8v9.5h9.2v-9.5h1.8v21.7h-1.8V275.2z"/>
	<path d="M570.1,265.7h-7.9v8.1h6.9v1.5h-6.9v8.9h8.4v1.6h-10.2v-21.7h10L570.1,265.7z"/>
	<path d="M579.1,284.2h8.1l-0.3,1.6h-9.7v-21.7h1.8v20.1H579.1z"/>
	<path d="M595.1,285.8h-1.8v-21.7h1.8V285.8z"/>
	<path d="M618.4,275c0,7.3-3.1,11.2-8,11.2c-4.7,0-8-3.7-8-11.1s3.3-11.2,8-11.2C615.2,263.8,618.4,267.5,618.4,275z M604.4,275
		c0,6.7,2.5,9.6,6.1,9.6c3.8,0,6.1-2.9,6.1-9.6c0-6.8-2.4-9.6-6.1-9.6C606.8,265.4,604.4,268.3,604.4,275z"/>
</g>
<g>
	<path class="st7" d="M51.3,292.7l51.4-53.5l51.4-54.4l52.6,54.4l52,54.4l34-35.7l32.9,35.7l32.9-34.4l32.9-34.4l32.9,34.4
		l32.9,34.4c0.1,0.1,0.2,0.1,0.3,0l11.7-12.2l11.7-12.2l11.7,12.2l11.7,12.2h1.5h7"/>
	<polyline class="st8" points="437.5,293.5 292.5,142.5 154.2,293.5 82.4,222.1 13,293.6 	"/>
	<polyline class="st9" points="103.5,292.6 129.1,265.8 154.1,239 179.9,265.8 205.6,292.7 249.1,247.2 257.1,238.8 292.7,201.9 
		335.8,247.2 379.1,292.6 404.8,265.8 430.4,239 456,265.8 481.7,292.6 	"/>
	<g>
		<g>
			<line class="st7" x1="592.7" y1="293.6" x2="597" y2="293.6"/>
			<line class="st7" x1="584.4" y1="293.6" x2="588.7" y2="293.6"/>
			<line class="st7" x1="601" y1="293.6" x2="601" y2="293.6"/>
			<line class="st7" x1="605" y1="293.6" x2="605" y2="293.6"/>
			<line class="st7" x1="609" y1="293.6" x2="609" y2="293.6"/>
		</g>
		<g>
			<line class="st7" x1="520.5" y1="293.6" x2="520.5" y2="293.6"/>
			<line class="st7" x1="524.5" y1="293.6" x2="524.5" y2="293.6"/>
			<line class="st7" x1="528.5" y1="293.6" x2="528.5" y2="293.6"/>
		</g>
		<g>
			<line class="st7" x1="568.7" y1="293.6" x2="568.7" y2="293.6"/>
			<line class="st7" x1="572.7" y1="293.6" x2="572.7" y2="293.6"/>
			<line class="st7" x1="576.7" y1="293.6" x2="576.7" y2="293.6"/>
		</g>
		<g>
			<line class="st7" x1="616.7" y1="293.6" x2="621" y2="293.6"/>
			<line class="st7" x1="625" y1="293.6" x2="625" y2="293.6"/>
			<line class="st7" x1="629" y1="293.6" x2="629" y2="293.6"/>
			<line class="st7" x1="633" y1="293.6" x2="633" y2="293.6"/>
			<line class="st7" x1="637" y1="293.6" x2="637" y2="293.6"/>
		</g>
		<g>
			<line class="st7" x1="536.2" y1="293.6" x2="540.5" y2="293.6"/>
			<line class="st7" x1="544.5" y1="293.6" x2="544.5" y2="293.6"/>
			<line class="st7" x1="548.5" y1="293.6" x2="552.8" y2="293.6"/>
			<line class="st7" x1="556.8" y1="293.6" x2="561.1" y2="293.6"/>
		</g>
		<line class="st7" x1="504.3" y1="293.6" x2="512.8" y2="293.6"/>
	</g>
</g>
</svg>
