0
SECTION
2
HEADER
9
$INSUNITS
70
4
9
$ACADVER
1
AC1014
9
$HANDSEED
5
FFFF
0
ENDSEC
0
SECTION
2
TABLES
0
TABLE
2
VPORT
5
8
100
AcDbSymbolTable
0
ENDTAB
0
TABLE
2
LTYPE
5
5
100
AcDbSymbolTable
0
LTYPE
5
14
100
AcDbSymbolTableRecord
100
AcDbLinetypeTableRecord
2
BYBLOCK
70
0
0
LTYPE
5
15
100
AcDbSymbolTableRecord
100
AcDbLinetypeTableRecord
2
BYLAYER
70
0
0
ENDTAB
0
TABLE
2
LAYER
5
2
100
AcDbSymbolTable
70
2
0
LAYER
5
50
100
AcDbSymbolTableRecord
100
AcDbLayerTableRecord
2
0
70
0
6
CONTINUOUS
0
ENDTAB
0
TABLE
2
STYLE
5
3
100
AcDbSymbolTable
70
1
0
STYLE
5
11
100
AcDbSymbolTableRecord
100
AcDbTextStyleTableRecord
2
STANDARD
70
0
0
ENDTAB
0
TABLE
2
VIEW
5
6
100
AcDbSymbolTable
70
0
0
ENDTAB
0
TABLE
2
UCS
5
7
100
AcDbSymbolTable
70
0
0
ENDTAB
0
TABLE
2
APPID
5
9
100
AcDbSymbolTable
70
2
0
APPID
5
12
100
AcDbSymbolTableRecord
100
AcDbRegAppTableRecord
2
ACAD
70
0
0
ENDTAB
0
TABLE
2
DIMSTYLE
5
A
100
AcDbSymbolTable
70
1
0
ENDTAB
0
TABLE
2
BLOCK_RECORD
5
1
100
AcDbSymbolTable
70
1
0
BLOCK_RECORD
5
1F
100
AcDbSymbolTableRecord
100
AcDbBlockTableRecord
2
*MODEL_SPACE
0
BLOCK_RECORD
5
1B
100
AcDbSymbolTableRecord
100
AcDbBlockTableRecord
2
*PAPER_SPACE
0
ENDTAB
0
ENDSEC
0
SECTION
2
BLOCKS
0
BLOCK
5
20
100
AcDbEntity
100
AcDbBlockBegin
2
*MODEL_SPACE
0
ENDBLK
5
21
100
AcDbEntity
100
AcDbBlockEnd
0
BLOCK
5
1C
100
AcDbEntity
100
AcDbBlockBegin
2
*PAPER_SPACE
0
ENDBLK
5
1D
100
AcDbEntity
100
AcDbBlockEnd
0
ENDSEC
0
SECTION
2
ENTITIES
0
LINE
5
100
100
AcDbEntity
8
0
100
AcDbLine
10
-33.912506771087713
20
-50.872264814376827
30
1.1397338184337968e-07
11
-33.912506770996032
21
-42.619721741709391
31
1.1397338184337968e-07
0
LINE
5
101
100
AcDbEntity
8
0
100
AcDbLine
10
-35.712506771087682
20
-42.619721741709391
30
1.1397338184337968e-07
11
-35.712506771087682
21
-58.672264814376803
31
1.1397338184337968e-07
0
ARC
5
102
100
AcDbEntity
8
0
100
AcDbCircle
10
-30.712506771087682
20
-58.672264814376831
30
1.1397338184337968e-07
40
5
100
AcDbArc
50
180
51
270.0000000000004
0
LINE
5
103
100
AcDbEntity
8
0
100
AcDbLine
10
-30.712506771087646
20
-63.672264814376831
30
1.1397338184337968e-07
11
99.287493228912297
21
-63.672264814376831
31
1.1397338184337968e-07
0
ARC
5
104
100
AcDbEntity
8
0
100
AcDbCircle
10
99.287493228912325
20
-58.672264814376831
30
1.1397338184337968e-07
40
5
100
AcDbArc
50
-90.000000000000313
51
0
0
LINE
5
105
100
AcDbEntity
8
0
100
AcDbLine
10
104.28749322891234
20
-58.672264814376803
30
1.1397338184337968e-07
11
104.28749322891235
21
71.327735185623126
31
1.1397338184337968e-07
0
ARC
5
106
100
AcDbEntity
8
0
100
AcDbCircle
10
99.287493228912325
20
71.327735185623155
30
1.1397338184337968e-07
40
5.0000000000000355
100
AcDbArc
50
0
51
90.000000000000327
0
LINE
5
107
100
AcDbEntity
8
0
100
AcDbLine
10
99.287493228912297
20
76.327735185623169
30
1.1397338184337968e-07
11
-30.712506771087646
21
76.327735185623155
31
1.1397338184337968e-07
0
ARC
5
108
100
AcDbEntity
8
0
100
AcDbCircle
10
-30.712506771087682
20
71.327735185623155
30
1.1397338184337968e-07
40
5
100
AcDbArc
50
89.999999999999588
51
180
0
LINE
5
109
100
AcDbEntity
8
0
100
AcDbLine
10
-35.712506771087682
20
71.327735185623141
30
1.1397338184337968e-07
11
-35.712506771087682
21
-40.629628064869436
31
1.1397338184337968e-07
0
LINE
5
110
100
AcDbEntity
8
0
100
AcDbLine
10
-33.912506770996053
20
-40.629628064869429
30
1.1397338184337968e-07
11
-33.912506771087791
21
63.527735185623307
31
1.1397338184337968e-07
0
ARC
5
111
100
AcDbEntity
8
0
100
AcDbCircle
10
-32.151343980390138
20
63.527735185623264
30
1.1397338184337968e-07
40
1.761162790697681
100
AcDbArc
50
50.325219590905057
51
180
0
ARC
5
112
100
AcDbEntity
8
0
100
AcDbCircle
10
-27.96250677108781
20
68.577735185623268
30
1.1397338184337968e-07
40
4.7999999999999954
100
AcDbArc
50
-129.67478040909486
51
39.674780409094012
0
ARC
5
113
100
AcDbEntity
8
0
100
AcDbCircle
10
-22.912506771087749
20
72.766572394925518
30
1.1397338184337968e-07
40
1.7611627906976679
100
AcDbArc
50
90.000000000001506
51
219.6747804090941
0
LINE
5
114
100
AcDbEntity
8
0
100
AcDbLine
10
-22.912506771087795
20
74.527735185623186
30
1.1397338184337968e-07
11
91.487493228912356
21
74.527735185623285
31
1.1397338184337968e-07
0
ARC
5
115
100
AcDbEntity
8
0
100
AcDbCircle
10
91.487493228912314
20
72.766572394925632
30
1.1397338184337968e-07
40
1.7611627906976879
100
AcDbArc
50
-39.674780409094893
51
89.999999999998607
0
ARC
5
116
100
AcDbEntity
8
0
100
AcDbCircle
10
96.537493228912311
20
68.577735185623311
30
1.1397338184337968e-07
40
4.7999999999999892
100
AcDbArc
50
140.32521959090516
51
309.67478040909424
0
ARC
5
117
100
AcDbEntity
8
0
100
AcDbCircle
10
100.72633043821457
20
63.527735185623257
30
1.1397338184337968e-07
40
1.7611627906976857
100
AcDbArc
50
0
51
129.67478040909396
0
LINE
5
118
100
AcDbEntity
8
0
100
AcDbLine
10
102.48749322891227
20
63.5277351856233
30
1.1397338184337968e-07
11
102.48749322891243
21
-50.872264814376891
31
1.1397338184337968e-07
0
ARC
5
119
100
AcDbEntity
8
0
100
AcDbCircle
10
100.72633043821472
20
-50.872264814376884
30
1.1397338184337968e-07
40
1.7611627906976879
100
AcDbArc
50
230.32521959090548
51
360
0
ARC
5
120
100
AcDbEntity
8
0
100
AcDbCircle
10
96.537493228912368
20
-55.922264814376838
30
1.1397338184337968e-07
40
4.7999999999999705
100
AcDbArc
50
50.325219590904418
51
219.67478040909455
0
ARC
5
121
100
AcDbEntity
8
0
100
AcDbCircle
10
91.487493228912342
20
-60.111102023679138
30
1.1397338184337968e-07
40
1.7611627906976945
100
AcDbArc
50
-90
51
39.674780409094588
0
LINE
5
122
100
AcDbEntity
8
0
100
AcDbLine
10
91.487493228912342
20
-61.872264814376834
30
1.1397338184337968e-07
11
-22.912506771087813
21
-61.872264814376848
31
1.1397338184337968e-07
0
ARC
5
123
100
AcDbEntity
8
0
100
AcDbCircle
10
-22.91250677108777
20
-60.11110202367918
30
1.1397338184337968e-07
40
1.761162790697681
100
AcDbArc
50
140.32521959090496
51
269.99999999999864
0
ARC
5
124
100
AcDbEntity
8
0
100
AcDbCircle
10
-27.962506771087767
20
-55.922264814376881
30
1.1397338184337968e-07
40
4.7999999999999785
100
AcDbArc
50
-39.674780409094595
51
129.67478040909401
0
ARC
5
125
100
AcDbEntity
8
0
100
AcDbCircle
10
-32.151343980390045
20
-50.87226481437682
30
1.1397338184337968e-07
40
1.7611627906976679
100
AcDbArc
50
180
51
309.67478040909486
0
CIRCLE
5
126
100
AcDbEntity
8
0
100
AcDbCircle
10
96.537493228912311
20
68.577735185623311
30
1.1397338184337968e-07
40
2.2000000000018396
0
CIRCLE
5
127
100
AcDbEntity
8
0
100
AcDbCircle
10
-27.96250677108781
20
68.577735185623268
30
1.1397338184337968e-07
40
2.2000000000049273
0
CIRCLE
5
128
100
AcDbEntity
8
0
100
AcDbCircle
10
-27.962506771087767
20
-55.922264814376881
30
1.1397338184337968e-07
40
2.200000000003616
0
CIRCLE
5
129
100
AcDbEntity
8
0
100
AcDbCircle
10
96.537493228912368
20
-55.922264814376838
30
1.1397338184337968e-07
40
2.1999999999999797
0
LINE
5
130
100
AcDbEntity
8
0
100
AcDbLine
10
-33.912506771087713
20
-50.872264814376827
30
0
11
-33.912506770996032
21
-42.619721741709391
31
0
0
LINE
5
131
100
AcDbEntity
8
0
100
AcDbLine
10
-35.712506771087682
20
-42.619721741709391
30
0
11
-35.712506771087682
21
-58.672264814376803
31
0
0
ARC
5
132
100
AcDbEntity
8
0
100
AcDbCircle
10
-30.712506771087682
20
-58.672264814376831
30
0
40
5
100
AcDbArc
50
180
51
270.0000000000004
0
LINE
5
133
100
AcDbEntity
8
0
100
AcDbLine
10
-30.712506771087646
20
-63.672264814376831
30
0
11
99.287493228912297
21
-63.672264814376831
31
0
0
ARC
5
134
100
AcDbEntity
8
0
100
AcDbCircle
10
99.287493228912325
20
-58.672264814376831
30
0
40
5
100
AcDbArc
50
-90.000000000000313
51
0
0
LINE
5
135
100
AcDbEntity
8
0
100
AcDbLine
10
104.28749322891233
20
-58.672264814376803
30
0
11
104.28749322891235
21
71.327735185623126
31
0
0
ARC
5
136
100
AcDbEntity
8
0
100
AcDbCircle
10
99.287493228912325
20
71.327735185623155
30
0
40
5.0000000000000355
100
AcDbArc
50
0
51
90.000000000000327
0
LINE
5
137
100
AcDbEntity
8
0
100
AcDbLine
10
99.287493228912297
20
76.327735185623169
30
0
11
-30.712506771087646
21
76.327735185623155
31
0
0
ARC
5
138
100
AcDbEntity
8
0
100
AcDbCircle
10
-30.712506771087682
20
71.327735185623155
30
0
40
5
100
AcDbArc
50
89.999999999999588
51
180
0
LINE
5
139
100
AcDbEntity
8
0
100
AcDbLine
10
-35.712506771087689
20
71.327735185623141
30
0
11
-35.712506771087682
21
-40.629628064869436
31
0
0
LINE
5
140
100
AcDbEntity
8
0
100
AcDbLine
10
-33.912506770996053
20
-40.629628064869429
30
0
11
-33.912506771087791
21
63.527735185623307
31
0
0
ARC
5
141
100
AcDbEntity
8
0
100
AcDbCircle
10
-32.151343980390138
20
63.527735185623264
30
0
40
1.761162790697681
100
AcDbArc
50
50.325219590905057
51
180
0
ARC
5
142
100
AcDbEntity
8
0
100
AcDbCircle
10
-27.962506771087817
20
68.577735185623268
30
0
40
4.7999999999999927
100
AcDbArc
50
-129.67478040909481
51
39.674780409094048
0
ARC
5
143
100
AcDbEntity
8
0
100
AcDbCircle
10
-22.912506771087749
20
72.766572394925518
30
0
40
1.7611627906976679
100
AcDbArc
50
90.000000000001506
51
219.67478040909384
0
LINE
5
144
100
AcDbEntity
8
0
100
AcDbLine
10
-22.912506771087795
20
74.527735185623186
30
0
11
91.487493228912356
21
74.527735185623285
31
0
0
ARC
5
145
100
AcDbEntity
8
0
100
AcDbCircle
10
91.487493228912314
20
72.766572394925632
30
0
40
1.7611627906976879
100
AcDbArc
50
-39.674780409094893
51
89.999999999998607
0
ARC
5
146
100
AcDbEntity
8
0
100
AcDbCircle
10
96.537493228912311
20
68.577735185623325
30
0
40
4.7999999999999838
100
AcDbArc
50
140.32521959090528
51
309.67478040909413
0
ARC
5
147
100
AcDbEntity
8
0
100
AcDbCircle
10
100.72633043821457
20
63.527735185623257
30
0
40
1.7611627906976857
100
AcDbArc
50
0
51
129.67478040909396
0
LINE
5
148
100
AcDbEntity
8
0
100
AcDbLine
10
102.48749322891227
20
63.5277351856233
30
0
11
102.48749322891243
21
-50.872264814376891
31
0
0
ARC
5
149
100
AcDbEntity
8
0
100
AcDbCircle
10
100.72633043821472
20
-50.872264814376884
30
0
40
1.7611627906976992
100
AcDbArc
50
230.32521959090474
51
360
0
ARC
5
150
100
AcDbEntity
8
0
100
AcDbCircle
10
96.537493228912382
20
-55.922264814376838
30
0
40
4.7999999999999483
100
AcDbArc
50
50.325219590904808
51
219.67478040909452
0
ARC
5
151
100
AcDbEntity
8
0
100
AcDbCircle
10
91.487493228912342
20
-60.111102023679138
30
0
40
1.7611627906976945
100
AcDbArc
50
-90.000000000000455
51
39.67478040909436
0
LINE
5
152
100
AcDbEntity
8
0
100
AcDbLine
10
91.487493228912328
20
-61.872264814376834
30
0
11
-22.912506771087813
21
-61.872264814376848
31
0
0
ARC
5
153
100
AcDbEntity
8
0
100
AcDbCircle
10
-22.91250677108777
20
-60.11110202367918
30
0
40
1.7611627906976846
100
AcDbArc
50
140.32521959090505
51
269.99999999999864
0
ARC
5
154
100
AcDbEntity
8
0
100
AcDbCircle
10
-27.962506771087764
20
-55.922264814376881
30
0
40
4.7999999999999705
100
AcDbArc
50
-39.674780409094694
51
129.67478040909413
0
ARC
5
155
100
AcDbEntity
8
0
100
AcDbCircle
10
-32.151343980390045
20
-50.87226481437682
30
0
40
1.7611627906976679
100
AcDbArc
50
180
51
309.67478040909464
0
CIRCLE
5
156
100
AcDbEntity
8
0
100
AcDbCircle
10
96.537493228908858
20
68.577735185623197
30
0
40
2.2000000000018396
0
CIRCLE
5
157
100
AcDbEntity
8
0
100
AcDbCircle
10
-27.962506771091178
20
68.577735185619673
30
0
40
2.2000000000049273
0
CIRCLE
5
158
100
AcDbEntity
8
0
100
AcDbCircle
10
-27.962506771087654
20
-55.922264814380355
30
0
40
2.200000000003616
0
CIRCLE
5
159
100
AcDbEntity
8
0
100
AcDbCircle
10
96.537493228912368
20
-55.922264814376838
30
0
40
2.1999999999999797
0
CIRCLE
5
160
100
AcDbEntity
8
0
100
AcDbCircle
10
34.287493228912325
20
6.3277351856231689
30
0
40
65
0
LINE
5
161
100
AcDbEntity
8
0
100
AcDbLine
10
-35.712506771087682
20
-42.619721741709391
30
0
11
-35.712506771087682
21
-40.629628064869436
31
1.1397338184337968e-07
0
LINE
5
162
100
AcDbEntity
8
0
100
AcDbLine
10
-33.912506770996032
20
-42.619721741709391
30
0
11
-33.912506770996053
21
-40.629628064869429
31
0
0
ENDSEC
0
SECTION
2
OBJECTS
0
DICTIONARY
5
C
100
AcDbDictionary
3
ACAD_GROUP
350
D
3
ACAD_MLINESTYLE
350
17
0
DICTIONARY
5
D
100
AcDbDictionary
0
DICTIONARY
5
1A
330
C
100
AcDbDictionary
0
DICTIONARY
5
17
100
AcDbDictionary
0
ENDSEC
0
EOF
